<?xml version="1.0" encoding="UTF-8" standalone="no"?>
<!DOCTYPE svg PUBLIC "-//W3C//DTD SVG 1.1//EN"
 "http://www.w3.org/Graphics/SVG/1.1/DTD/svg11.dtd">
<!-- Generated by graphviz version 2.40.1 (20161225.0304)
 -->
<!-- Title: brain Pages: 1 -->
<svg width="501pt" height="188pt"
 viewBox="0.00 0.00 500.98 188.00" xmlns="http://www.w3.org/2000/svg" xmlns:xlink="http://www.w3.org/1999/xlink">
<g id="graph0" class="graph" transform="scale(1 1) rotate(0) translate(4 184)">
<title>brain</title>
<polygon fill="#ffffff" stroke="transparent" points="-4,4 -4,-184 496.9779,-184 496.9779,4 -4,4"/>
<!-- brain -->
<g id="node1" class="node">
<title>brain</title>
<polygon fill="#00ffff" stroke="#000000" points="281.1689,-154.5442 281.1689,-169.4558 263.1951,-180 237.7762,-180 219.8023,-169.4558 219.8023,-154.5442 237.7762,-144 263.1951,-144 281.1689,-154.5442"/>
<text text-anchor="middle" x="250.4856" y="-159.2" font-family="Times,serif" font-size="11.00" fill="#000000">brain</text>
</g>
<!-- rangsaf -->
<g id="node2" class="node">
<title>rangsaf</title>
<polygon fill="#ffa500" stroke="#000000" points="225.9856,-108 164.9856,-108 164.9856,-72 225.9856,-72 225.9856,-108"/>
<text text-anchor="middle" x="195.4856" y="-87.2" font-family="Times,serif" font-size="11.00" fill="#000000">rangsaf</text>
</g>
<!-- brain&#45;&gt;rangsaf -->
<g id="edge1" class="edge">
<title>brain&#45;&gt;rangsaf</title>
<path fill="none" stroke="#000000" d="M236.8901,-144.2022C230.4604,-135.7851 222.6544,-125.5665 215.561,-116.2805"/>
<polygon fill="#000000" stroke="#000000" points="218.1585,-113.9152 209.3068,-108.0931 212.5958,-118.1645 218.1585,-113.9152"/>
</g>
<!-- approach obstacle -->
<g id="node6" class="node">
<title>approach obstacle</title>
<polygon fill="#ffa500" stroke="#000000" points="409.4856,-108 287.4856,-108 287.4856,-72 409.4856,-72 409.4856,-108"/>
<text text-anchor="middle" x="348.4856" y="-87.2" font-family="Times,serif" font-size="11.00" fill="#000000">approach obstacle</text>
</g>
<!-- brain&#45;&gt;approach obstacle -->
<g id="edge5" class="edge">
<title>brain&#45;&gt;approach obstacle</title>
<path fill="none" stroke="#000000" d="M269.8473,-147.7751C282.9315,-138.1622 300.5321,-125.2312 315.7646,-114.0399"/>
<polygon fill="#000000" stroke="#000000" points="317.9533,-116.775 323.9398,-108.0336 313.8087,-111.1339 317.9533,-116.775"/>
</g>
<!-- min dist -->
<g id="node3" class="node">
<title>min dist</title>
<ellipse fill="#c0c0c0" stroke="#000000" cx="38.4856" cy="-18" rx="38.4712" ry="18"/>
<text text-anchor="middle" x="38.4856" y="-15.2" font-family="Times,serif" font-size="11.00" fill="#000000">min dist</text>
</g>
<!-- rangsaf&#45;&gt;min dist -->
<g id="edge2" class="edge">
<title>rangsaf&#45;&gt;min dist</title>
<path fill="none" stroke="#000000" d="M164.8417,-75.9468C139.2175,-64.1955 102.5922,-47.3992 75.3648,-34.9128"/>
<polygon fill="#000000" stroke="#000000" points="76.7083,-31.6784 66.1596,-30.6912 73.7903,-38.0412 76.7083,-31.6784"/>
</g>
<!-- turn from obs -->
<g id="node4" class="node">
<title>turn from obs</title>
<ellipse fill="#c0c0c0" stroke="#000000" cx="152.4856" cy="-18" rx="57.9578" ry="18"/>
<text text-anchor="middle" x="152.4856" y="-15.2" font-family="Times,serif" font-size="11.00" fill="#000000">turn from obs</text>
</g>
<!-- rangsaf&#45;&gt;turn from obs -->
<g id="edge3" class="edge">
<title>rangsaf&#45;&gt;turn from obs</title>
<path fill="none" stroke="#000000" d="M184.6349,-71.8314C179.7087,-63.5829 173.7847,-53.6635 168.3712,-44.5992"/>
<polygon fill="#000000" stroke="#000000" points="171.3163,-42.7042 163.1839,-35.9134 165.3065,-46.2935 171.3163,-42.7042"/>
</g>
<!-- creep -->
<g id="node5" class="node">
<title>creep</title>
<ellipse fill="#c0c0c0" stroke="#000000" cx="257.4856" cy="-18" rx="29.4311" ry="18"/>
<text text-anchor="middle" x="257.4856" y="-15.2" font-family="Times,serif" font-size="11.00" fill="#000000">creep</text>
</g>
<!-- rangsaf&#45;&gt;creep -->
<g id="edge4" class="edge">
<title>rangsaf&#45;&gt;creep</title>
<path fill="none" stroke="#000000" d="M211.1308,-71.8314C218.9781,-62.7185 228.5815,-51.5661 237.008,-41.7805"/>
<polygon fill="#000000" stroke="#000000" points="239.872,-43.8183 243.745,-33.9568 234.5676,-39.2507 239.872,-43.8183"/>
</g>
<!-- chkfacing -->
<g id="node7" class="node">
<title>chkfacing</title>
<ellipse fill="#c0c0c0" stroke="#000000" cx="348.4856" cy="-18" rx="43.7956" ry="18"/>
<text text-anchor="middle" x="348.4856" y="-15.2" font-family="Times,serif" font-size="11.00" fill="#000000">chkfacing</text>
</g>
<!-- approach obstacle&#45;&gt;chkfacing -->
<g id="edge6" class="edge">
<title>approach obstacle&#45;&gt;chkfacing</title>
<path fill="none" stroke="#000000" d="M348.4856,-71.8314C348.4856,-64.131 348.4856,-54.9743 348.4856,-46.4166"/>
<polygon fill="#000000" stroke="#000000" points="351.9857,-46.4132 348.4856,-36.4133 344.9857,-46.4133 351.9857,-46.4132"/>
</g>
<!-- turn2obs -->
<g id="node8" class="node">
<title>turn2obs</title>
<ellipse fill="#c0c0c0" stroke="#000000" cx="451.4856" cy="-18" rx="41.4846" ry="18"/>
<text text-anchor="middle" x="451.4856" y="-15.2" font-family="Times,serif" font-size="11.00" fill="#000000">turn2obs</text>
</g>
<!-- approach obstacle&#45;&gt;turn2obs -->
<g id="edge7" class="edge">
<title>approach obstacle&#45;&gt;turn2obs</title>
<path fill="none" stroke="#000000" d="M374.4769,-71.8314C388.6252,-61.9413 406.2099,-49.649 421.0023,-39.3087"/>
<polygon fill="#000000" stroke="#000000" points="423.1513,-42.0769 429.3421,-33.479 419.1408,-36.3397 423.1513,-42.0769"/>
</g>
</g>
</svg>
