<?xml version="1.0" encoding="UTF-8" standalone="no"?>
<!DOCTYPE svg PUBLIC "-//W3C//DTD SVG 1.1//EN"
 "http://www.w3.org/Graphics/SVG/1.1/DTD/svg11.dtd">
<!-- Generated by graphviz version 2.40.1 (20161225.0304)
 -->
<!-- Title: brain Pages: 1 -->
<svg width="1021pt" height="341pt"
 viewBox="0.00 0.00 1020.90 341.25" xmlns="http://www.w3.org/2000/svg" xmlns:xlink="http://www.w3.org/1999/xlink">
<g id="graph0" class="graph" transform="scale(1 1) rotate(0) translate(4 337.2548)">
<title>brain</title>
<polygon fill="#ffffff" stroke="transparent" points="-4,4 -4,-337.2548 1016.8957,-337.2548 1016.8957,4 -4,4"/>
<!-- Brain -->
<g id="node1" class="node">
<title>Brain</title>
<polygon fill="#00ffff" stroke="#000000" points="441.6539,-307.799 441.6539,-322.7107 423.2094,-333.2548 397.125,-333.2548 378.6805,-322.7107 378.6805,-307.799 397.125,-297.2548 423.2094,-297.2548 441.6539,-307.799"/>
<text text-anchor="middle" x="410.1672" y="-312.4548" font-family="Times,serif" font-size="11.00" fill="#000000">Brain</text>
</g>
<!-- Range Safety -->
<g id="node2" class="node">
<title>Range Safety</title>
<polygon fill="#ffa500" stroke="#000000" points="393.6672,-261.2548 300.6672,-261.2548 300.6672,-225.2548 393.6672,-225.2548 393.6672,-261.2548"/>
<text text-anchor="middle" x="347.1672" y="-240.4548" font-family="Times,serif" font-size="11.00" fill="#000000">Range Safety</text>
</g>
<!-- Brain&#45;&gt;Range Safety -->
<g id="edge1" class="edge">
<title>Brain&#45;&gt;Range Safety</title>
<path fill="none" stroke="#000000" d="M395.2371,-298.1918C387.6755,-289.55 378.3331,-278.8729 369.9011,-269.2364"/>
<polygon fill="#000000" stroke="#000000" points="372.3106,-266.675 363.0915,-261.454 367.0425,-271.2846 372.3106,-266.675"/>
</g>
<!-- ApproachWall -->
<g id="node6" class="node">
<title>ApproachWall</title>
<polygon fill="#ffa500" stroke="#000000" points="607.1672,-261.2548 509.1672,-261.2548 509.1672,-225.2548 607.1672,-225.2548 607.1672,-261.2548"/>
<text text-anchor="middle" x="558.1672" y="-240.4548" font-family="Times,serif" font-size="11.00" fill="#000000">ApproachWall</text>
</g>
<!-- Brain&#45;&gt;ApproachWall -->
<g id="edge5" class="edge">
<title>Brain&#45;&gt;ApproachWall</title>
<path fill="none" stroke="#000000" d="M434.2754,-303.5265C455.2122,-293.3411 486.1226,-278.3036 511.8301,-265.7972"/>
<polygon fill="#000000" stroke="#000000" points="513.5765,-268.8399 521.0377,-261.3178 510.5142,-262.5452 513.5765,-268.8399"/>
</g>
<!-- CheckMinDistance -->
<g id="node3" class="node">
<title>CheckMinDistance</title>
<ellipse fill="#c0c0c0" stroke="#000000" cx="75.1672" cy="-171.2548" rx="75.3348" ry="18"/>
<text text-anchor="middle" x="75.1672" y="-168.4548" font-family="Times,serif" font-size="11.00" fill="#000000">CheckMinDistance</text>
</g>
<!-- Range Safety&#45;&gt;CheckMinDistance -->
<g id="edge2" class="edge">
<title>Range Safety&#45;&gt;CheckMinDistance</title>
<path fill="none" stroke="#000000" d="M300.4088,-230.8776C254.8411,-218.8156 185.3425,-200.4189 135.6014,-187.2521"/>
<polygon fill="#000000" stroke="#000000" points="136.4923,-183.8675 125.9296,-184.6919 134.701,-190.6344 136.4923,-183.8675"/>
</g>
<!-- TurnAwayFromObstacle -->
<g id="node4" class="node">
<title>TurnAwayFromObstacle</title>
<ellipse fill="#c0c0c0" stroke="#000000" cx="261.1672" cy="-171.2548" rx="93.4152" ry="18"/>
<text text-anchor="middle" x="261.1672" y="-168.4548" font-family="Times,serif" font-size="11.00" fill="#000000">TurnAwayFromObstacle</text>
</g>
<!-- Range Safety&#45;&gt;TurnAwayFromObstacle -->
<g id="edge3" class="edge">
<title>Range Safety&#45;&gt;TurnAwayFromObstacle</title>
<path fill="none" stroke="#000000" d="M325.4658,-225.0862C314.7116,-216.0826 301.5794,-205.0883 289.9932,-195.3882"/>
<polygon fill="#000000" stroke="#000000" points="292.1815,-192.6556 282.2671,-188.9199 287.6879,-198.0229 292.1815,-192.6556"/>
</g>
<!-- CreepForward -->
<g id="node5" class="node">
<title>CreepForward</title>
<ellipse fill="#c0c0c0" stroke="#000000" cx="432.1672" cy="-171.2548" rx="60.2679" ry="18"/>
<text text-anchor="middle" x="432.1672" y="-168.4548" font-family="Times,serif" font-size="11.00" fill="#000000">CreepForward</text>
</g>
<!-- Range Safety&#45;&gt;CreepForward -->
<g id="edge4" class="edge">
<title>Range Safety&#45;&gt;CreepForward</title>
<path fill="none" stroke="#000000" d="M368.6163,-225.0862C379.4053,-215.9473 392.6158,-204.7572 404.192,-194.9515"/>
<polygon fill="#000000" stroke="#000000" points="406.5271,-197.5604 411.8954,-188.4263 402.0027,-192.2191 406.5271,-197.5604"/>
</g>
<!-- Face Wall -->
<g id="node7" class="node">
<title>Face Wall</title>
<polygon fill="#00ffff" stroke="#000000" points="605.6962,-163.799 605.6962,-178.7107 577.8544,-189.2548 538.4801,-189.2548 510.6383,-178.7107 510.6383,-163.799 538.4801,-153.2548 577.8544,-153.2548 605.6962,-163.799"/>
<text text-anchor="middle" x="558.1672" y="-168.4548" font-family="Times,serif" font-size="11.00" fill="#000000">Face Wall</text>
</g>
<!-- ApproachWall&#45;&gt;Face Wall -->
<g id="edge6" class="edge">
<title>ApproachWall&#45;&gt;Face Wall</title>
<path fill="none" stroke="#000000" d="M558.1672,-225.0862C558.1672,-217.3858 558.1672,-208.2292 558.1672,-199.6715"/>
<polygon fill="#000000" stroke="#000000" points="561.6673,-199.6681 558.1672,-189.6681 554.6673,-199.6681 561.6673,-199.6681"/>
</g>
<!-- Move towards wall -->
<g id="node10" class="node">
<title>Move towards wall</title>
<polygon fill="#ffa500" stroke="#000000" points="847.6672,-189.2548 722.6672,-189.2548 722.6672,-153.2548 847.6672,-153.2548 847.6672,-189.2548"/>
<text text-anchor="middle" x="785.1672" y="-168.4548" font-family="Times,serif" font-size="11.00" fill="#000000">Move towards wall</text>
</g>
<!-- ApproachWall&#45;&gt;Move towards wall -->
<g id="edge9" class="edge">
<title>ApproachWall&#45;&gt;Move towards wall</title>
<path fill="none" stroke="#000000" d="M607.4228,-227.6319C639.9616,-217.3112 683.0043,-203.6589 718.5828,-192.3741"/>
<polygon fill="#000000" stroke="#000000" points="719.931,-195.6184 728.4049,-189.2588 717.8146,-188.946 719.931,-195.6184"/>
</g>
<!-- CheckFacingObstacle -->
<g id="node8" class="node">
<title>CheckFacingObstacle</title>
<ellipse fill="#c0c0c0" stroke="#000000" cx="341.1672" cy="-94.6274" rx="84.5778" ry="18"/>
<text text-anchor="middle" x="341.1672" y="-91.8274" font-family="Times,serif" font-size="11.00" fill="#000000">CheckFacingObstacle</text>
</g>
<!-- Face Wall&#45;&gt;CheckFacingObstacle -->
<g id="edge7" class="edge">
<title>Face Wall&#45;&gt;CheckFacingObstacle</title>
<path fill="none" stroke="#000000" d="M523.3024,-158.9433C488.5487,-146.671 434.7106,-127.6596 394.5692,-113.4848"/>
<polygon fill="#000000" stroke="#000000" points="395.5324,-110.1132 384.9376,-110.0837 393.2015,-116.7137 395.5324,-110.1132"/>
</g>
<!-- TurnTowardsNearestObstacle -->
<g id="node9" class="node">
<title>TurnTowardsNearestObstacle</title>
<ellipse fill="#c0c0c0" stroke="#000000" cx="558.1672" cy="-94.6274" rx="114.0089" ry="18"/>
<text text-anchor="middle" x="558.1672" y="-91.8274" font-family="Times,serif" font-size="11.00" fill="#000000">TurnTowardsNearestObstacle</text>
</g>
<!-- Face Wall&#45;&gt;TurnTowardsNearestObstacle -->
<g id="edge8" class="edge">
<title>Face Wall&#45;&gt;TurnTowardsNearestObstacle</title>
<path fill="none" stroke="#000000" d="M558.1672,-153.0952C558.1672,-144.0294 558.1672,-132.8589 558.1672,-122.719"/>
<polygon fill="#000000" stroke="#000000" points="561.6673,-122.6567 558.1672,-112.6567 554.6673,-122.6567 561.6673,-122.6567"/>
</g>
<!-- Inverter\n[CheckMinDistance] -->
<g id="node11" class="node">
<title>Inverter\n[CheckMinDistance]</title>
<ellipse fill="#f8f8ff" stroke="#000000" cx="785.1672" cy="-94.6274" rx="94.5053" ry="22.7556"/>
<text text-anchor="middle" x="785.1672" y="-97.8274" font-family="Times,serif" font-size="11.00" fill="#000000">Inverter</text>
<text text-anchor="middle" x="785.1672" y="-85.8274" font-family="Times,serif" font-size="11.00" fill="#000000">[CheckMinDistance]</text>
</g>
<!-- Move towards wall&#45;&gt;Inverter\n[CheckMinDistance] -->
<g id="edge10" class="edge">
<title>Move towards wall&#45;&gt;Inverter\n[CheckMinDistance]</title>
<path fill="none" stroke="#000000" d="M785.1672,-153.0952C785.1672,-145.3972 785.1672,-136.1817 785.1672,-127.3683"/>
<polygon fill="#000000" stroke="#000000" points="788.6673,-127.3217 785.1672,-117.3217 781.6673,-127.3217 788.6673,-127.3217"/>
</g>
<!-- DriveForward -->
<g id="node13" class="node">
<title>DriveForward</title>
<ellipse fill="#c0c0c0" stroke="#000000" cx="955.1672" cy="-94.6274" rx="57.9578" ry="18"/>
<text text-anchor="middle" x="955.1672" y="-91.8274" font-family="Times,serif" font-size="11.00" fill="#000000">DriveForward</text>
</g>
<!-- Move towards wall&#45;&gt;DriveForward -->
<g id="edge12" class="edge">
<title>Move towards wall&#45;&gt;DriveForward</title>
<path fill="none" stroke="#000000" d="M825.4549,-153.0952C851.8919,-141.1787 886.3959,-125.626 913.1711,-113.5572"/>
<polygon fill="#000000" stroke="#000000" points="914.6151,-116.7454 922.2935,-109.4452 911.7386,-110.3638 914.6151,-116.7454"/>
</g>
<!-- CheckMinDistance* -->
<g id="node12" class="node">
<title>CheckMinDistance*</title>
<ellipse fill="#c0c0c0" stroke="#000000" cx="785.1672" cy="-18" rx="78.5511" ry="18"/>
<text text-anchor="middle" x="785.1672" y="-15.2" font-family="Times,serif" font-size="11.00" fill="#000000">CheckMinDistance*</text>
</g>
<!-- Inverter\n[CheckMinDistance]&#45;&gt;CheckMinDistance* -->
<g id="edge11" class="edge">
<title>Inverter\n[CheckMinDistance]&#45;&gt;CheckMinDistance*</title>
<path fill="none" stroke="#000000" d="M785.1672,-71.6367C785.1672,-63.7015 785.1672,-54.7165 785.1672,-46.4005"/>
<polygon fill="#000000" stroke="#000000" points="788.6673,-46.3541 785.1672,-36.3542 781.6673,-46.3542 788.6673,-46.3541"/>
</g>
</g>
</svg>
