<?xml version="1.0" encoding="UTF-8" standalone="no"?>
<!DOCTYPE svg PUBLIC "-//W3C//DTD SVG 1.1//EN"
 "http://www.w3.org/Graphics/SVG/1.1/DTD/svg11.dtd">
<!-- Generated by graphviz version 2.40.1 (20161225.0304)
 -->
<!-- Title: orient Pages: 1 -->
<svg width="397pt" height="188pt"
 viewBox="0.00 0.00 396.98 188.00" xmlns="http://www.w3.org/2000/svg" xmlns:xlink="http://www.w3.org/1999/xlink">
<g id="graph0" class="graph" transform="scale(1 1) rotate(0) translate(4 184)">
<title>orient</title>
<polygon fill="#ffffff" stroke="transparent" points="-4,4 -4,-184 392.9779,-184 392.9779,4 -4,4"/>
<!-- orient -->
<g id="node1" class="node">
<title>orient</title>
<polygon fill="#00ffff" stroke="#000000" points="277.8769,-154.5442 277.8769,-169.4558 258.3167,-180 230.6545,-180 211.0944,-169.4558 211.0944,-154.5442 230.6545,-144 258.3167,-144 277.8769,-154.5442"/>
<text text-anchor="middle" x="244.4856" y="-159.2" font-family="Times,serif" font-size="11.00" fill="#000000">orient</text>
</g>
<!-- rangsaf -->
<g id="node2" class="node">
<title>rangsaf</title>
<polygon fill="#ffa500" stroke="#000000" points="182.9856,-108 121.9856,-108 121.9856,-72 182.9856,-72 182.9856,-108"/>
<text text-anchor="middle" x="152.4856" y="-87.2" font-family="Times,serif" font-size="11.00" fill="#000000">rangsaf</text>
</g>
<!-- orient&#45;&gt;rangsaf -->
<g id="edge1" class="edge">
<title>orient&#45;&gt;rangsaf</title>
<path fill="none" stroke="#000000" d="M224.9748,-146.7307C213.0065,-137.3641 197.4091,-125.1575 183.7498,-114.4676"/>
<polygon fill="#000000" stroke="#000000" points="185.5774,-111.4535 175.5453,-108.0467 181.2633,-116.9661 185.5774,-111.4535"/>
</g>
<!-- chkfacing -->
<g id="node6" class="node">
<title>chkfacing</title>
<ellipse fill="#c0c0c0" stroke="#000000" cx="244.4856" cy="-90" rx="43.7956" ry="18"/>
<text text-anchor="middle" x="244.4856" y="-87.2" font-family="Times,serif" font-size="11.00" fill="#000000">chkfacing</text>
</g>
<!-- orient&#45;&gt;chkfacing -->
<g id="edge5" class="edge">
<title>orient&#45;&gt;chkfacing</title>
<path fill="none" stroke="#000000" d="M244.4856,-143.8314C244.4856,-136.131 244.4856,-126.9743 244.4856,-118.4166"/>
<polygon fill="#000000" stroke="#000000" points="247.9857,-118.4132 244.4856,-108.4133 240.9857,-118.4133 247.9857,-118.4132"/>
</g>
<!-- turn2obs -->
<g id="node7" class="node">
<title>turn2obs</title>
<ellipse fill="#c0c0c0" stroke="#000000" cx="347.4856" cy="-90" rx="41.4846" ry="18"/>
<text text-anchor="middle" x="347.4856" y="-87.2" font-family="Times,serif" font-size="11.00" fill="#000000">turn2obs</text>
</g>
<!-- orient&#45;&gt;turn2obs -->
<g id="edge6" class="edge">
<title>orient&#45;&gt;turn2obs</title>
<path fill="none" stroke="#000000" d="M265.3292,-147.4297C280.1462,-137.0722 300.2862,-122.9937 316.917,-111.3684"/>
<polygon fill="#000000" stroke="#000000" points="319.0563,-114.1433 325.2471,-105.5454 315.0458,-108.4061 319.0563,-114.1433"/>
</g>
<!-- min dist -->
<g id="node3" class="node">
<title>min dist</title>
<ellipse fill="#c0c0c0" stroke="#000000" cx="38.4856" cy="-18" rx="38.4712" ry="18"/>
<text text-anchor="middle" x="38.4856" y="-15.2" font-family="Times,serif" font-size="11.00" fill="#000000">min dist</text>
</g>
<!-- rangsaf&#45;&gt;min dist -->
<g id="edge2" class="edge">
<title>rangsaf&#45;&gt;min dist</title>
<path fill="none" stroke="#000000" d="M123.7186,-71.8314C107.4677,-61.5676 87.1206,-48.7168 70.3825,-38.1454"/>
<polygon fill="#000000" stroke="#000000" points="71.8277,-34.9185 61.5038,-32.5378 68.0897,-40.837 71.8277,-34.9185"/>
</g>
<!-- turn from obs -->
<g id="node4" class="node">
<title>turn from obs</title>
<ellipse fill="#c0c0c0" stroke="#000000" cx="152.4856" cy="-18" rx="57.9578" ry="18"/>
<text text-anchor="middle" x="152.4856" y="-15.2" font-family="Times,serif" font-size="11.00" fill="#000000">turn from obs</text>
</g>
<!-- rangsaf&#45;&gt;turn from obs -->
<g id="edge3" class="edge">
<title>rangsaf&#45;&gt;turn from obs</title>
<path fill="none" stroke="#000000" d="M152.4856,-71.8314C152.4856,-64.131 152.4856,-54.9743 152.4856,-46.4166"/>
<polygon fill="#000000" stroke="#000000" points="155.9857,-46.4132 152.4856,-36.4133 148.9857,-46.4133 155.9857,-46.4132"/>
</g>
<!-- creep -->
<g id="node5" class="node">
<title>creep</title>
<ellipse fill="#c0c0c0" stroke="#000000" cx="257.4856" cy="-18" rx="29.4311" ry="18"/>
<text text-anchor="middle" x="257.4856" y="-15.2" font-family="Times,serif" font-size="11.00" fill="#000000">creep</text>
</g>
<!-- rangsaf&#45;&gt;creep -->
<g id="edge4" class="edge">
<title>rangsaf&#45;&gt;creep</title>
<path fill="none" stroke="#000000" d="M178.9816,-71.8314C194.3596,-61.2864 213.72,-48.0107 229.3664,-37.2817"/>
<polygon fill="#000000" stroke="#000000" points="231.36,-40.1586 237.6279,-31.6167 227.4013,-34.3855 231.36,-40.1586"/>
</g>
</g>
</svg>
