<?xml version="1.0" encoding="UTF-8" standalone="no"?>
<!DOCTYPE svg PUBLIC "-//W3C//DTD SVG 1.1//EN"
 "http://www.w3.org/Graphics/SVG/1.1/DTD/svg11.dtd">
<!-- Generated by graphviz version 2.40.1 (20161225.0304)
 -->
<!-- Title: selector Pages: 1 -->
<svg width="457pt" height="188pt"
 viewBox="0.00 0.00 457.50 188.00" xmlns="http://www.w3.org/2000/svg" xmlns:xlink="http://www.w3.org/1999/xlink">
<g id="graph0" class="graph" transform="scale(1 1) rotate(0) translate(4 184)">
<title>selector</title>
<polygon fill="#ffffff" stroke="transparent" points="-4,4 -4,-184 453.497,-184 453.497,4 -4,4"/>
<!-- Selector -->
<g id="node1" class="node">
<title>Selector</title>
<polygon fill="#00ffff" stroke="#000000" points="331.1769,-154.5442 331.1769,-169.4558 306.683,-180 272.0434,-180 247.5496,-169.4558 247.5496,-154.5442 272.0434,-144 306.683,-144 331.1769,-154.5442"/>
<text text-anchor="middle" x="289.3632" y="-159.2" font-family="Times,serif" font-size="11.00" fill="#000000">Selector</text>
</g>
<!-- Sequence -->
<g id="node2" class="node">
<title>Sequence</title>
<polygon fill="#ffa500" stroke="#000000" points="274.8632,-108 201.8632,-108 201.8632,-72 274.8632,-72 274.8632,-108"/>
<text text-anchor="middle" x="238.3632" y="-87.2" font-family="Times,serif" font-size="11.00" fill="#000000">Sequence</text>
</g>
<!-- Selector&#45;&gt;Sequence -->
<g id="edge1" class="edge">
<title>Selector&#45;&gt;Sequence</title>
<path fill="none" stroke="#000000" d="M276.4938,-143.8314C270.6797,-135.6232 263.6936,-125.7606 257.2986,-116.7323"/>
<polygon fill="#000000" stroke="#000000" points="260.0422,-114.5505 251.4059,-108.4133 254.3301,-118.5966 260.0422,-114.5505"/>
</g>
<!-- FollowWall -->
<g id="node6" class="node">
<title>FollowWall</title>
<ellipse fill="#c0c0c0" stroke="#000000" cx="341.3632" cy="-90" rx="48.2143" ry="18"/>
<text text-anchor="middle" x="341.3632" y="-87.2" font-family="Times,serif" font-size="11.00" fill="#000000">FollowWall</text>
</g>
<!-- Selector&#45;&gt;FollowWall -->
<g id="edge5" class="edge">
<title>Selector&#45;&gt;FollowWall</title>
<path fill="none" stroke="#000000" d="M302.485,-143.8314C308.6585,-135.2835 316.1279,-124.9412 322.8631,-115.6156"/>
<polygon fill="#000000" stroke="#000000" points="325.7662,-117.5738 328.7838,-107.4177 320.0914,-113.4753 325.7662,-117.5738"/>
</g>
<!-- DistanceLessThan -->
<g id="node3" class="node">
<title>DistanceLessThan</title>
<ellipse fill="#c0c0c0" stroke="#000000" cx="73.3632" cy="-18" rx="73.2267" ry="18"/>
<text text-anchor="middle" x="73.3632" y="-15.2" font-family="Times,serif" font-size="11.00" fill="#000000">DistanceLessThan</text>
</g>
<!-- Sequence&#45;&gt;DistanceLessThan -->
<g id="edge2" class="edge">
<title>Sequence&#45;&gt;DistanceLessThan</title>
<path fill="none" stroke="#000000" d="M201.7444,-74.0209C177.3072,-63.3574 144.995,-49.2575 118.9014,-37.8712"/>
<polygon fill="#000000" stroke="#000000" points="120.1607,-34.6021 109.5955,-33.8104 117.3611,-41.0178 120.1607,-34.6021"/>
</g>
<!-- TurnSoObstacleAt -->
<g id="node4" class="node">
<title>TurnSoObstacleAt</title>
<ellipse fill="#c0c0c0" stroke="#000000" cx="238.3632" cy="-18" rx="73.2267" ry="18"/>
<text text-anchor="middle" x="238.3632" y="-15.2" font-family="Times,serif" font-size="11.00" fill="#000000">TurnSoObstacleAt</text>
</g>
<!-- Sequence&#45;&gt;TurnSoObstacleAt -->
<g id="edge3" class="edge">
<title>Sequence&#45;&gt;TurnSoObstacleAt</title>
<path fill="none" stroke="#000000" d="M238.3632,-71.8314C238.3632,-64.131 238.3632,-54.9743 238.3632,-46.4166"/>
<polygon fill="#000000" stroke="#000000" points="241.8633,-46.4132 238.3632,-36.4133 234.8633,-46.4133 241.8633,-46.4132"/>
</g>
<!-- CreepForward -->
<g id="node5" class="node">
<title>CreepForward</title>
<ellipse fill="#c0c0c0" stroke="#000000" cx="389.3632" cy="-18" rx="60.2679" ry="18"/>
<text text-anchor="middle" x="389.3632" y="-15.2" font-family="Times,serif" font-size="11.00" fill="#000000">CreepForward</text>
</g>
<!-- Sequence&#45;&gt;CreepForward -->
<g id="edge4" class="edge">
<title>Sequence&#45;&gt;CreepForward</title>
<path fill="none" stroke="#000000" d="M274.9161,-72.5708C297.0096,-62.0362 325.2305,-48.5799 348.1201,-37.6656"/>
<polygon fill="#000000" stroke="#000000" points="349.7276,-40.7767 357.2476,-33.3134 346.7148,-34.4582 349.7276,-40.7767"/>
</g>
</g>
</svg>
