<?xml version="1.0" encoding="UTF-8" standalone="no"?>
<!DOCTYPE svg PUBLIC "-//W3C//DTD SVG 1.1//EN"
 "http://www.w3.org/Graphics/SVG/1.1/DTD/svg11.dtd">
<!-- Generated by graphviz version 2.40.1 (20161225.0304)
 -->
<!-- Title: selector Pages: 1 -->
<svg width="979pt" height="269pt"
 viewBox="0.00 0.00 979.11 269.25" xmlns="http://www.w3.org/2000/svg" xmlns:xlink="http://www.w3.org/1999/xlink">
<g id="graph0" class="graph" transform="scale(1 1) rotate(0) translate(4 265.2548)">
<title>selector</title>
<polygon fill="#ffffff" stroke="transparent" points="-4,4 -4,-265.2548 975.105,-265.2548 975.105,4 -4,4"/>
<!-- Selector -->
<g id="node1" class="node">
<title>Selector</title>
<polygon fill="#00ffff" stroke="#000000" points="696.1769,-235.799 696.1769,-250.7107 671.683,-261.2548 637.0434,-261.2548 612.5496,-250.7107 612.5496,-235.799 637.0434,-225.2548 671.683,-225.2548 696.1769,-235.799"/>
<text text-anchor="middle" x="654.3632" y="-240.4548" font-family="Times,serif" font-size="11.00" fill="#000000">Selector</text>
</g>
<!-- Sequence -->
<g id="node2" class="node">
<title>Sequence</title>
<polygon fill="#ffa500" stroke="#000000" points="350.8632,-189.2548 277.8632,-189.2548 277.8632,-153.2548 350.8632,-153.2548 350.8632,-189.2548"/>
<text text-anchor="middle" x="314.3632" y="-168.4548" font-family="Times,serif" font-size="11.00" fill="#000000">Sequence</text>
</g>
<!-- Selector&#45;&gt;Sequence -->
<g id="edge1" class="edge">
<title>Selector&#45;&gt;Sequence</title>
<path fill="none" stroke="#000000" d="M614.6955,-234.8546C551.4635,-221.4643 428.1103,-195.3425 360.8387,-181.0967"/>
<polygon fill="#000000" stroke="#000000" points="361.4459,-177.6477 350.9377,-179 359.9956,-184.4959 361.4459,-177.6477"/>
</g>
<!-- Sequence* -->
<g id="node6" class="node">
<title>Sequence*</title>
<polygon fill="#ffa500" stroke="#000000" points="693.8632,-189.2548 614.8632,-189.2548 614.8632,-153.2548 693.8632,-153.2548 693.8632,-189.2548"/>
<text text-anchor="middle" x="654.3632" y="-168.4548" font-family="Times,serif" font-size="11.00" fill="#000000">Sequence*</text>
</g>
<!-- Selector&#45;&gt;Sequence* -->
<g id="edge5" class="edge">
<title>Selector&#45;&gt;Sequence*</title>
<path fill="none" stroke="#000000" d="M654.3632,-225.0862C654.3632,-217.3858 654.3632,-208.2292 654.3632,-199.6715"/>
<polygon fill="#000000" stroke="#000000" points="657.8633,-199.6681 654.3632,-189.6681 650.8633,-199.6681 657.8633,-199.6681"/>
</g>
<!-- FollowWall -->
<g id="node11" class="node">
<title>FollowWall</title>
<ellipse fill="#c0c0c0" stroke="#000000" cx="760.3632" cy="-171.2548" rx="48.2143" ry="18"/>
<text text-anchor="middle" x="760.3632" y="-168.4548" font-family="Times,serif" font-size="11.00" fill="#000000">FollowWall</text>
</g>
<!-- Selector&#45;&gt;FollowWall -->
<g id="edge10" class="edge">
<title>Selector&#45;&gt;FollowWall</title>
<path fill="none" stroke="#000000" d="M677.3636,-227.6319C692.4005,-217.4182 712.2411,-203.9415 728.7533,-192.7257"/>
<polygon fill="#000000" stroke="#000000" points="730.7361,-195.61 737.0416,-187.0959 726.8028,-189.8195 730.7361,-195.61"/>
</g>
<!-- DistanceLessThan -->
<g id="node3" class="node">
<title>DistanceLessThan</title>
<ellipse fill="#c0c0c0" stroke="#000000" cx="73.3632" cy="-94.6274" rx="73.2267" ry="18"/>
<text text-anchor="middle" x="73.3632" y="-91.8274" font-family="Times,serif" font-size="11.00" fill="#000000">DistanceLessThan</text>
</g>
<!-- Sequence&#45;&gt;DistanceLessThan -->
<g id="edge2" class="edge">
<title>Sequence&#45;&gt;DistanceLessThan</title>
<path fill="none" stroke="#000000" d="M277.7605,-159.6168C238.0134,-146.9789 174.0893,-126.6539 128.3105,-112.0982"/>
<polygon fill="#000000" stroke="#000000" points="129.1336,-108.6874 118.5432,-108.9927 127.0125,-115.3583 129.1336,-108.6874"/>
</g>
<!-- TurnSoObstacleAt -->
<g id="node4" class="node">
<title>TurnSoObstacleAt</title>
<ellipse fill="#c0c0c0" stroke="#000000" cx="238.3632" cy="-94.6274" rx="73.2267" ry="18"/>
<text text-anchor="middle" x="238.3632" y="-91.8274" font-family="Times,serif" font-size="11.00" fill="#000000">TurnSoObstacleAt</text>
</g>
<!-- Sequence&#45;&gt;TurnSoObstacleAt -->
<g id="edge3" class="edge">
<title>Sequence&#45;&gt;TurnSoObstacleAt</title>
<path fill="none" stroke="#000000" d="M296.3523,-153.0952C286.3662,-143.0267 273.8054,-130.3622 262.9296,-119.3966"/>
<polygon fill="#000000" stroke="#000000" points="265.2487,-116.7647 255.7217,-112.1292 260.2787,-121.694 265.2487,-116.7647"/>
</g>
<!-- CreepForward -->
<g id="node5" class="node">
<title>CreepForward</title>
<ellipse fill="#c0c0c0" stroke="#000000" cx="389.3632" cy="-94.6274" rx="60.2679" ry="18"/>
<text text-anchor="middle" x="389.3632" y="-91.8274" font-family="Times,serif" font-size="11.00" fill="#000000">CreepForward</text>
</g>
<!-- Sequence&#45;&gt;CreepForward -->
<g id="edge4" class="edge">
<title>Sequence&#45;&gt;CreepForward</title>
<path fill="none" stroke="#000000" d="M332.1372,-153.0952C341.9919,-143.0267 354.3874,-130.3622 365.1201,-119.3966"/>
<polygon fill="#000000" stroke="#000000" points="367.7396,-121.724 372.2331,-112.1292 362.737,-116.8276 367.7396,-121.724"/>
</g>
<!-- Inverter\n[DistanceLessThan] -->
<g id="node7" class="node">
<title>Inverter\n[DistanceLessThan]</title>
<ellipse fill="#f8f8ff" stroke="#000000" cx="560.3632" cy="-94.6274" rx="92.7622" ry="22.7556"/>
<text text-anchor="middle" x="560.3632" y="-97.8274" font-family="Times,serif" font-size="11.00" fill="#000000">Inverter</text>
<text text-anchor="middle" x="560.3632" y="-85.8274" font-family="Times,serif" font-size="11.00" fill="#000000">[DistanceLessThan]</text>
</g>
<!-- Sequence*&#45;&gt;Inverter\n[DistanceLessThan] -->
<g id="edge6" class="edge">
<title>Sequence*&#45;&gt;Inverter\n[DistanceLessThan]</title>
<path fill="none" stroke="#000000" d="M632.0865,-153.0952C621.0417,-144.0916 607.4504,-133.0122 595.08,-122.928"/>
<polygon fill="#000000" stroke="#000000" points="597.1286,-120.0825 587.1662,-116.4768 592.7057,-125.5081 597.1286,-120.0825"/>
</g>
<!-- TurnSoObstacleAt* -->
<g id="node9" class="node">
<title>TurnSoObstacleAt*</title>
<ellipse fill="#c0c0c0" stroke="#000000" cx="748.3632" cy="-94.6274" rx="76.9425" ry="18"/>
<text text-anchor="middle" x="748.3632" y="-91.8274" font-family="Times,serif" font-size="11.00" fill="#000000">TurnSoObstacleAt*</text>
</g>
<!-- Sequence*&#45;&gt;TurnSoObstacleAt* -->
<g id="edge8" class="edge">
<title>Sequence*&#45;&gt;TurnSoObstacleAt*</title>
<path fill="none" stroke="#000000" d="M676.6399,-153.0952C689.3474,-142.7362 705.4258,-129.6294 719.1372,-118.452"/>
<polygon fill="#000000" stroke="#000000" points="721.354,-121.1606 726.8935,-112.1292 716.931,-115.7349 721.354,-121.1606"/>
</g>
<!-- CreepForward* -->
<g id="node10" class="node">
<title>CreepForward*</title>
<ellipse fill="#c0c0c0" stroke="#000000" cx="907.3632" cy="-94.6274" rx="63.9845" ry="18"/>
<text text-anchor="middle" x="907.3632" y="-91.8274" font-family="Times,serif" font-size="11.00" fill="#000000">CreepForward*</text>
</g>
<!-- Sequence*&#45;&gt;CreepForward* -->
<g id="edge9" class="edge">
<title>Sequence*&#45;&gt;CreepForward*</title>
<path fill="none" stroke="#000000" d="M694.1124,-156.3364C697.2319,-155.2626 700.3426,-154.2228 703.3632,-153.2548 760.8636,-134.8285 776.4077,-134.1954 834.3632,-117.2548 840.9519,-115.3289 847.8588,-113.2574 854.6864,-111.1776"/>
<polygon fill="#000000" stroke="#000000" points="856.0525,-114.4196 864.5863,-108.1408 853.9996,-107.7274 856.0525,-114.4196"/>
</g>
<!-- DistanceLessThan* -->
<g id="node8" class="node">
<title>DistanceLessThan*</title>
<ellipse fill="#c0c0c0" stroke="#000000" cx="560.3632" cy="-18" rx="76.9425" ry="18"/>
<text text-anchor="middle" x="560.3632" y="-15.2" font-family="Times,serif" font-size="11.00" fill="#000000">DistanceLessThan*</text>
</g>
<!-- Inverter\n[DistanceLessThan]&#45;&gt;DistanceLessThan* -->
<g id="edge7" class="edge">
<title>Inverter\n[DistanceLessThan]&#45;&gt;DistanceLessThan*</title>
<path fill="none" stroke="#000000" d="M560.3632,-71.6367C560.3632,-63.7015 560.3632,-54.7165 560.3632,-46.4005"/>
<polygon fill="#000000" stroke="#000000" points="563.8633,-46.3541 560.3632,-36.3542 556.8633,-46.3542 563.8633,-46.3541"/>
</g>
</g>
</svg>
