<?xml version="1.0" encoding="UTF-8" standalone="no"?>
<!DOCTYPE svg PUBLIC "-//W3C//DTD SVG 1.1//EN"
 "http://www.w3.org/Graphics/SVG/1.1/DTD/svg11.dtd">
<!-- Generated by graphviz version 2.40.1 (20161225.0304)
 -->
<!-- Title: selector Pages: 1 -->
<svg width="1012pt" height="341pt"
 viewBox="0.00 0.00 1012.09 341.25" xmlns="http://www.w3.org/2000/svg" xmlns:xlink="http://www.w3.org/1999/xlink">
<g id="graph0" class="graph" transform="scale(1 1) rotate(0) translate(4 337.2548)">
<title>selector</title>
<polygon fill="#ffffff" stroke="transparent" points="-4,4 -4,-337.2548 1008.0916,-337.2548 1008.0916,4 -4,4"/>
<!-- Selector -->
<g id="node1" class="node">
<title>Selector</title>
<polygon fill="#00ffff" stroke="#000000" points="448.1769,-307.799 448.1769,-322.7107 423.683,-333.2548 389.0434,-333.2548 364.5496,-322.7107 364.5496,-307.799 389.0434,-297.2548 423.683,-297.2548 448.1769,-307.799"/>
<text text-anchor="middle" x="406.3632" y="-312.4548" font-family="Times,serif" font-size="11.00" fill="#000000">Selector</text>
</g>
<!-- Sequence -->
<g id="node2" class="node">
<title>Sequence</title>
<polygon fill="#ffa500" stroke="#000000" points="380.8632,-261.2548 307.8632,-261.2548 307.8632,-225.2548 380.8632,-225.2548 380.8632,-261.2548"/>
<text text-anchor="middle" x="344.3632" y="-240.4548" font-family="Times,serif" font-size="11.00" fill="#000000">Sequence</text>
</g>
<!-- Selector&#45;&gt;Sequence -->
<g id="edge1" class="edge">
<title>Selector&#45;&gt;Sequence</title>
<path fill="none" stroke="#000000" d="M390.718,-297.0862C383.5042,-288.7088 374.8062,-278.608 366.9027,-269.4298"/>
<polygon fill="#000000" stroke="#000000" points="369.3965,-266.962 360.2191,-261.6681 364.0921,-271.5297 369.3965,-266.962"/>
</g>
<!-- Sequence* -->
<g id="node6" class="node">
<title>Sequence*</title>
<polygon fill="#ffa500" stroke="#000000" points="592.8632,-261.2548 513.8632,-261.2548 513.8632,-225.2548 592.8632,-225.2548 592.8632,-261.2548"/>
<text text-anchor="middle" x="553.3632" y="-240.4548" font-family="Times,serif" font-size="11.00" fill="#000000">Sequence*</text>
</g>
<!-- Selector&#45;&gt;Sequence* -->
<g id="edge5" class="edge">
<title>Selector&#45;&gt;Sequence*</title>
<path fill="none" stroke="#000000" d="M434.3588,-301.5427C454.95,-291.4572 483.3969,-277.524 507.3148,-265.8092"/>
<polygon fill="#000000" stroke="#000000" points="509.1301,-268.8174 516.5712,-261.2754 506.051,-262.5309 509.1301,-268.8174"/>
</g>
<!-- DistanceLessThan -->
<g id="node3" class="node">
<title>DistanceLessThan</title>
<ellipse fill="#c0c0c0" stroke="#000000" cx="73.3632" cy="-171.2548" rx="73.2267" ry="18"/>
<text text-anchor="middle" x="73.3632" y="-168.4548" font-family="Times,serif" font-size="11.00" fill="#000000">DistanceLessThan</text>
</g>
<!-- Sequence&#45;&gt;DistanceLessThan -->
<g id="edge2" class="edge">
<title>Sequence&#45;&gt;DistanceLessThan</title>
<path fill="none" stroke="#000000" d="M307.8149,-233.5446C263.0676,-221.656 186.6635,-201.3568 133.2774,-187.173"/>
<polygon fill="#000000" stroke="#000000" points="134.1532,-183.7843 123.5898,-184.5992 132.3557,-190.5496 134.1532,-183.7843"/>
</g>
<!-- TurnAwayFromObstacle -->
<g id="node4" class="node">
<title>TurnAwayFromObstacle</title>
<ellipse fill="#c0c0c0" stroke="#000000" cx="258.3632" cy="-171.2548" rx="93.4152" ry="18"/>
<text text-anchor="middle" x="258.3632" y="-168.4548" font-family="Times,serif" font-size="11.00" fill="#000000">TurnAwayFromObstacle</text>
</g>
<!-- Sequence&#45;&gt;TurnAwayFromObstacle -->
<g id="edge3" class="edge">
<title>Sequence&#45;&gt;TurnAwayFromObstacle</title>
<path fill="none" stroke="#000000" d="M322.6618,-225.0862C311.9075,-216.0826 298.7754,-205.0883 287.1892,-195.3882"/>
<polygon fill="#000000" stroke="#000000" points="289.3775,-192.6556 279.4631,-188.9199 284.8839,-198.0229 289.3775,-192.6556"/>
</g>
<!-- CreepForward -->
<g id="node5" class="node">
<title>CreepForward</title>
<ellipse fill="#c0c0c0" stroke="#000000" cx="429.3632" cy="-171.2548" rx="60.2679" ry="18"/>
<text text-anchor="middle" x="429.3632" y="-168.4548" font-family="Times,serif" font-size="11.00" fill="#000000">CreepForward</text>
</g>
<!-- Sequence&#45;&gt;CreepForward -->
<g id="edge4" class="edge">
<title>Sequence&#45;&gt;CreepForward</title>
<path fill="none" stroke="#000000" d="M365.8123,-225.0862C376.6013,-215.9473 389.8118,-204.7572 401.388,-194.9515"/>
<polygon fill="#000000" stroke="#000000" points="403.7231,-197.5604 409.0913,-188.4263 399.1987,-192.2191 403.7231,-197.5604"/>
</g>
<!-- Selector* -->
<g id="node7" class="node">
<title>Selector*</title>
<polygon fill="#00ffff" stroke="#000000" points="598.987,-163.799 598.987,-178.7107 572.2612,-189.2548 534.4652,-189.2548 507.7395,-178.7107 507.7395,-163.799 534.4652,-153.2548 572.2612,-153.2548 598.987,-163.799"/>
<text text-anchor="middle" x="553.3632" y="-168.4548" font-family="Times,serif" font-size="11.00" fill="#000000">Selector*</text>
</g>
<!-- Sequence*&#45;&gt;Selector* -->
<g id="edge6" class="edge">
<title>Sequence*&#45;&gt;Selector*</title>
<path fill="none" stroke="#000000" d="M553.3632,-225.0862C553.3632,-217.3858 553.3632,-208.2292 553.3632,-199.6715"/>
<polygon fill="#000000" stroke="#000000" points="556.8633,-199.6681 553.3632,-189.6681 549.8633,-199.6681 556.8633,-199.6681"/>
</g>
<!-- Sequence** -->
<g id="node10" class="node">
<title>Sequence**</title>
<polygon fill="#ffa500" stroke="#000000" points="820.8632,-189.2548 735.8632,-189.2548 735.8632,-153.2548 820.8632,-153.2548 820.8632,-189.2548"/>
<text text-anchor="middle" x="778.3632" y="-168.4548" font-family="Times,serif" font-size="11.00" fill="#000000">Sequence**</text>
</g>
<!-- Sequence*&#45;&gt;Sequence** -->
<g id="edge9" class="edge">
<title>Sequence*&#45;&gt;Sequence**</title>
<path fill="none" stroke="#000000" d="M593.0708,-230.5484C630.0167,-218.7257 685.3183,-201.0292 725.8903,-188.0462"/>
<polygon fill="#000000" stroke="#000000" points="727.1496,-191.3181 735.6071,-184.9368 725.0161,-184.6511 727.1496,-191.3181"/>
</g>
<!-- CheckFacingObstacle -->
<g id="node8" class="node">
<title>CheckFacingObstacle</title>
<ellipse fill="#c0c0c0" stroke="#000000" cx="336.3632" cy="-94.6274" rx="84.5778" ry="18"/>
<text text-anchor="middle" x="336.3632" y="-91.8274" font-family="Times,serif" font-size="11.00" fill="#000000">CheckFacingObstacle</text>
</g>
<!-- Selector*&#45;&gt;CheckFacingObstacle -->
<g id="edge7" class="edge">
<title>Selector*&#45;&gt;CheckFacingObstacle</title>
<path fill="none" stroke="#000000" d="M518.9789,-159.113C484.3118,-146.8713 430.3079,-127.8013 390.0065,-113.57"/>
<polygon fill="#000000" stroke="#000000" points="390.9304,-110.1845 380.3356,-110.155 388.5996,-116.7851 390.9304,-110.1845"/>
</g>
<!-- TurnTowardsNearestObstacle -->
<g id="node9" class="node">
<title>TurnTowardsNearestObstacle</title>
<ellipse fill="#c0c0c0" stroke="#000000" cx="553.3632" cy="-94.6274" rx="114.0089" ry="18"/>
<text text-anchor="middle" x="553.3632" y="-91.8274" font-family="Times,serif" font-size="11.00" fill="#000000">TurnTowardsNearestObstacle</text>
</g>
<!-- Selector*&#45;&gt;TurnTowardsNearestObstacle -->
<g id="edge8" class="edge">
<title>Selector*&#45;&gt;TurnTowardsNearestObstacle</title>
<path fill="none" stroke="#000000" d="M553.3632,-153.0952C553.3632,-144.0294 553.3632,-132.8589 553.3632,-122.719"/>
<polygon fill="#000000" stroke="#000000" points="556.8633,-122.6567 553.3632,-112.6567 549.8633,-122.6567 556.8633,-122.6567"/>
</g>
<!-- Inverter\n[DistanceLessThan] -->
<g id="node11" class="node">
<title>Inverter\n[DistanceLessThan]</title>
<ellipse fill="#f8f8ff" stroke="#000000" cx="778.3632" cy="-94.6274" rx="92.7622" ry="22.7556"/>
<text text-anchor="middle" x="778.3632" y="-97.8274" font-family="Times,serif" font-size="11.00" fill="#000000">Inverter</text>
<text text-anchor="middle" x="778.3632" y="-85.8274" font-family="Times,serif" font-size="11.00" fill="#000000">[DistanceLessThan]</text>
</g>
<!-- Sequence**&#45;&gt;Inverter\n[DistanceLessThan] -->
<g id="edge10" class="edge">
<title>Sequence**&#45;&gt;Inverter\n[DistanceLessThan]</title>
<path fill="none" stroke="#000000" d="M778.3632,-153.0952C778.3632,-145.3972 778.3632,-136.1817 778.3632,-127.3683"/>
<polygon fill="#000000" stroke="#000000" points="781.8633,-127.3217 778.3632,-117.3217 774.8633,-127.3217 781.8633,-127.3217"/>
</g>
<!-- DriveForward -->
<g id="node13" class="node">
<title>DriveForward</title>
<ellipse fill="#c0c0c0" stroke="#000000" cx="946.3632" cy="-94.6274" rx="57.9578" ry="18"/>
<text text-anchor="middle" x="946.3632" y="-91.8274" font-family="Times,serif" font-size="11.00" fill="#000000">DriveForward</text>
</g>
<!-- Sequence**&#45;&gt;DriveForward -->
<g id="edge12" class="edge">
<title>Sequence**&#45;&gt;DriveForward</title>
<path fill="none" stroke="#000000" d="M818.1769,-153.0952C844.1023,-141.2702 877.8781,-125.8645 904.2506,-113.8357"/>
<polygon fill="#000000" stroke="#000000" points="905.9577,-116.9039 913.6035,-109.5696 903.0528,-110.5351 905.9577,-116.9039"/>
</g>
<!-- DistanceLessThan* -->
<g id="node12" class="node">
<title>DistanceLessThan*</title>
<ellipse fill="#c0c0c0" stroke="#000000" cx="778.3632" cy="-18" rx="76.9425" ry="18"/>
<text text-anchor="middle" x="778.3632" y="-15.2" font-family="Times,serif" font-size="11.00" fill="#000000">DistanceLessThan*</text>
</g>
<!-- Inverter\n[DistanceLessThan]&#45;&gt;DistanceLessThan* -->
<g id="edge11" class="edge">
<title>Inverter\n[DistanceLessThan]&#45;&gt;DistanceLessThan*</title>
<path fill="none" stroke="#000000" d="M778.3632,-71.6367C778.3632,-63.7015 778.3632,-54.7165 778.3632,-46.4005"/>
<polygon fill="#000000" stroke="#000000" points="781.8633,-46.3541 778.3632,-36.3542 774.8633,-46.3542 781.8633,-46.3541"/>
</g>
</g>
</svg>
